<svg id="visual" viewBox="0 0 900 450" width="900" height="450" xmlns="http://www.w3.org/2000/svg" xmlns:xlink="http://www.w3.org/1999/xlink" version="1.1"><g stroke-width="1" stroke-linejoin="bevel"><path d="M485 196.5L499 173L485 153.8Z" fill="#bebdba" stroke="#bebdba"></path><path d="M499 173L486 150.8L485 153.8Z" fill="#b1ada9" stroke="#b1ada9"></path><path d="M441 131.8L428 176L485 153.8Z" fill="#969087" stroke="#969087"></path><path d="M485 153.8L428 176L485 196.5Z" fill="#a39f98" stroke="#a39f98"></path><path d="M486 150.8L441 131.8L485 153.8Z" fill="#9c978f" stroke="#9c978f"></path><path d="M520 248.5L522 224.3L485 196.5Z" fill="#cccccc" stroke="#cccccc"></path><path d="M485 196.5L522 224.3L499 173Z" fill="#c5c4c3" stroke="#c5c4c3"></path><path d="M538 132.8L504 108.3L486 150.8Z" fill="#9c978f" stroke="#9c978f"></path><path d="M486 150.8L504 108.3L441 131.8Z" fill="#c5c4c3" stroke="#c5c4c3"></path><path d="M538 132.8L486 150.8L499 173Z" fill="#c5c4c3" stroke="#c5c4c3"></path><path d="M522 224.3L538 132.8L499 173Z" fill="#969087" stroke="#969087"></path><path d="M333 163.5L396 201.5L428 176Z" fill="#969087" stroke="#969087"></path><path d="M428 176L396 201.5L485 196.5Z" fill="#a39f98" stroke="#a39f98"></path><path d="M500 273.5L520 248.5L485 196.5Z" fill="#c5c4c3" stroke="#c5c4c3"></path><path d="M522 224.3L573 131L538 132.8Z" fill="#8f897f" stroke="#8f897f"></path><path d="M396 201.5L500 273.5L485 196.5Z" fill="#8f897f" stroke="#8f897f"></path><path d="M622 143L573 131L629 198Z" fill="#969087" stroke="#969087"></path><path d="M538 132.8L512 57.5L504 108.3Z" fill="#c5c4c3" stroke="#c5c4c3"></path><path d="M499 292L503 281.3L500 273.5Z" fill="#9c978f" stroke="#9c978f"></path><path d="M500 273.5L522 286.3L520 248.5Z" fill="#bebdba" stroke="#bebdba"></path><path d="M451 308.5L499 292L500 273.5Z" fill="#c5c4c3" stroke="#c5c4c3"></path><path d="M503 281.3L522 286.3L500 273.5Z" fill="#bebdba" stroke="#bebdba"></path><path d="M499 292L522 286.3L503 281.3Z" fill="#888277" stroke="#888277"></path><path d="M629 198L573 131L522 224.3Z" fill="#a39f98" stroke="#a39f98"></path><path d="M598 71.5L512 57.5L538 132.8Z" fill="#b1ada9" stroke="#b1ada9"></path><path d="M504 108.3L512 57.5L441 131.8Z" fill="#c5c4c3" stroke="#c5c4c3"></path><path d="M396 201.5L451 308.5L500 273.5Z" fill="#a39f98" stroke="#a39f98"></path><path d="M499 292L544 320.5L522 286.3Z" fill="#bebdba" stroke="#bebdba"></path><path d="M317 83.8L333 163.5L441 131.8Z" fill="#a39f98" stroke="#a39f98"></path><path d="M441 131.8L333 163.5L428 176Z" fill="#b7b5b1" stroke="#b7b5b1"></path><path d="M302 294.3L398 355.3L451 308.5Z" fill="#888277" stroke="#888277"></path><path d="M333 163.5L332 195.5L396 201.5Z" fill="#b7b5b1" stroke="#b7b5b1"></path><path d="M622 143L600 96.3L573 131Z" fill="#c5c4c3" stroke="#c5c4c3"></path><path d="M573 131L600 96.3L538 132.8Z" fill="#cccccc" stroke="#cccccc"></path><path d="M629 198L522 224.3L520 248.5Z" fill="#a39f98" stroke="#a39f98"></path><path d="M287 220.3L327 204.5L281 151.3Z" fill="#cccccc" stroke="#cccccc"></path><path d="M332 195.5L327 204.5L396 201.5Z" fill="#b7b5b1" stroke="#b7b5b1"></path><path d="M648 231.3L629 198L520 248.5Z" fill="#c5c4c3" stroke="#c5c4c3"></path><path d="M644 93.3L598 71.5L600 96.3Z" fill="#a39f98" stroke="#a39f98"></path><path d="M600 96.3L598 71.5L538 132.8Z" fill="#a39f98" stroke="#a39f98"></path><path d="M517 392.8L544 320.5L499 292Z" fill="#a39f98" stroke="#a39f98"></path><path d="M581 329.8L648 231.3L520 248.5Z" fill="#cccccc" stroke="#cccccc"></path><path d="M530 0L506 0L512 57.5Z" fill="#8f897f" stroke="#8f897f"></path><path d="M512 57.5L393 0L441 131.8Z" fill="#888277" stroke="#888277"></path><path d="M581 329.8L520 248.5L522 286.3Z" fill="#aaa6a0" stroke="#aaa6a0"></path><path d="M695 166.8L644 93.3L622 143Z" fill="#888277" stroke="#888277"></path><path d="M393 0L317 83.8L441 131.8Z" fill="#888277" stroke="#888277"></path><path d="M281 151.3L327 204.5L332 195.5Z" fill="#bebdba" stroke="#bebdba"></path><path d="M560 0L530 0L512 57.5Z" fill="#cccccc" stroke="#cccccc"></path><path d="M517 392.8L581 329.8L544 320.5Z" fill="#cccccc" stroke="#cccccc"></path><path d="M544 320.5L581 329.8L522 286.3Z" fill="#a39f98" stroke="#a39f98"></path><path d="M695 166.8L622 143L629 198Z" fill="#b7b5b1" stroke="#b7b5b1"></path><path d="M622 143L644 93.3L600 96.3Z" fill="#a39f98" stroke="#a39f98"></path><path d="M598 71.5L560 0L512 57.5Z" fill="#969087" stroke="#969087"></path><path d="M437 -21.7L393 0L512 57.5Z" fill="#8f897f" stroke="#8f897f"></path><path d="M281 151.3L332 195.5L333 163.5Z" fill="#a39f98" stroke="#a39f98"></path><path d="M302 294.3L451 308.5L396 201.5Z" fill="#a39f98" stroke="#a39f98"></path><path d="M670 0L560 0L598 71.5Z" fill="#b7b5b1" stroke="#b7b5b1"></path><path d="M298 276L396 201.5L327 204.5Z" fill="#969087" stroke="#969087"></path><path d="M451 308.5L517 392.8L499 292Z" fill="#9c978f" stroke="#9c978f"></path><path d="M276 119.8L281 151.3L333 163.5Z" fill="#b1ada9" stroke="#b1ada9"></path><path d="M506 0L437 -21.7L512 57.5Z" fill="#aaa6a0" stroke="#aaa6a0"></path><path d="M457 -43.7L437 -21.7L506 0Z" fill="#b7b5b1" stroke="#b7b5b1"></path><path d="M512 -39.7L506 0L530 0Z" fill="#bebdba" stroke="#bebdba"></path><path d="M287 220.3L298 276L327 204.5Z" fill="#a39f98" stroke="#a39f98"></path><path d="M317 83.8L276 119.8L333 163.5Z" fill="#8f897f" stroke="#8f897f"></path><path d="M281 151.3L221 177L287 220.3Z" fill="#969087" stroke="#969087"></path><path d="M287 0L276 119.8L317 83.8Z" fill="#8f897f" stroke="#8f897f"></path><path d="M298 276L302 294.3L396 201.5Z" fill="#aaa6a0" stroke="#aaa6a0"></path><path d="M560 0L512 -39.7L530 0Z" fill="#c5c4c3" stroke="#c5c4c3"></path><path d="M692 222.8L695 166.8L629 198Z" fill="#b7b5b1" stroke="#b7b5b1"></path><path d="M692 222.8L629 198L648 231.3Z" fill="#bebdba" stroke="#bebdba"></path><path d="M437 -21.7L419 -39.7L393 0Z" fill="#cccccc" stroke="#cccccc"></path><path d="M512 -39.7L457 -43.7L506 0Z" fill="#888277" stroke="#888277"></path><path d="M689 297.8L692 222.8L648 231.3Z" fill="#8f897f" stroke="#8f897f"></path><path d="M398 355.3L517 392.8L451 308.5Z" fill="#c5c4c3" stroke="#c5c4c3"></path><path d="M581 329.8L664 314L648 231.3Z" fill="#c5c4c3" stroke="#c5c4c3"></path><path d="M457 -43.7L419 -39.7L437 -21.7Z" fill="#b1ada9" stroke="#b1ada9"></path><path d="M393 0L327 0L317 83.8Z" fill="#b7b5b1" stroke="#b7b5b1"></path><path d="M419 -39.7L327 0L393 0Z" fill="#cccccc" stroke="#cccccc"></path><path d="M302 294.3L351 368.8L398 355.3Z" fill="#c5c4c3" stroke="#c5c4c3"></path><path d="M398 355.3L414 441.8L517 392.8Z" fill="#aaa6a0" stroke="#aaa6a0"></path><path d="M680 382.8L664 314L581 329.8Z" fill="#cccccc" stroke="#cccccc"></path><path d="M750 158.8L717 142.5L695 166.8Z" fill="#a39f98" stroke="#a39f98"></path><path d="M695 166.8L717 142.5L644 93.3Z" fill="#c5c4c3" stroke="#c5c4c3"></path><path d="M644 93.3L670 0L598 71.5Z" fill="#8f897f" stroke="#8f897f"></path><path d="M722 227L695 166.8L692 222.8Z" fill="#aaa6a0" stroke="#aaa6a0"></path><path d="M302 294.3L333 374.5L351 368.8Z" fill="#9c978f" stroke="#9c978f"></path><path d="M388 450L414 441.8L398 355.3Z" fill="#aaa6a0" stroke="#aaa6a0"></path><path d="M664 314L689 297.8L648 231.3Z" fill="#969087" stroke="#969087"></path><path d="M727 288.3L722 227L692 222.8Z" fill="#bebdba" stroke="#bebdba"></path><path d="M276 119.8L221 177L281 151.3Z" fill="#cccccc" stroke="#cccccc"></path><path d="M287 220.3L219 259.3L298 276Z" fill="#cccccc" stroke="#cccccc"></path><path d="M298 276L238 321.3L302 294.3Z" fill="#cccccc" stroke="#cccccc"></path><path d="M302 294.3L268 356.5L333 374.5Z" fill="#8f897f" stroke="#8f897f"></path><path d="M190 182.8L159 138.5L158 154.3Z" fill="#a39f98" stroke="#a39f98"></path><path d="M419 -39.7L287 0L327 0Z" fill="#9c978f" stroke="#9c978f"></path><path d="M327 0L287 0L317 83.8Z" fill="#aaa6a0" stroke="#aaa6a0"></path><path d="M749 65.5L670 0L644 93.3Z" fill="#9c978f" stroke="#9c978f"></path><path d="M560 0L670 0L512 -39.7Z" fill="#b7b5b1" stroke="#b7b5b1"></path><path d="M221 177L219 259.3L287 220.3Z" fill="#9c978f" stroke="#9c978f"></path><path d="M388 450L398 355.3L351 368.8Z" fill="#cccccc" stroke="#cccccc"></path><path d="M722 227L750 158.8L695 166.8Z" fill="#a39f98" stroke="#a39f98"></path><path d="M717 142.5L749 65.5L644 93.3Z" fill="#969087" stroke="#969087"></path><path d="M689 297.8L727 288.3L692 222.8Z" fill="#9c978f" stroke="#9c978f"></path><path d="M722 227L775 247.5L750 158.8Z" fill="#c5c4c3" stroke="#c5c4c3"></path><path d="M758 305.8L727 288.3L689 297.8Z" fill="#c5c4c3" stroke="#c5c4c3"></path><path d="M680 382.8L689 297.8L664 314Z" fill="#c5c4c3" stroke="#c5c4c3"></path><path d="M238 321.3L268 356.5L302 294.3Z" fill="#bebdba" stroke="#bebdba"></path><path d="M333 374.5L340 427.8L351 368.8Z" fill="#b7b5b1" stroke="#b7b5b1"></path><path d="M414 441.8L509 450L517 392.8Z" fill="#cccccc" stroke="#cccccc"></path><path d="M600 450L680 382.8L581 329.8Z" fill="#cccccc" stroke="#cccccc"></path><path d="M221 295.3L238 321.3L298 276Z" fill="#bebdba" stroke="#bebdba"></path><path d="M219 259.3L221 295.3L298 276Z" fill="#8f897f" stroke="#8f897f"></path><path d="M221 177L190 182.8L219 259.3Z" fill="#b7b5b1" stroke="#b7b5b1"></path><path d="M219 259.3L198 282.5L221 295.3Z" fill="#888277" stroke="#888277"></path><path d="M190 182.8L221 177L159 138.5Z" fill="#a39f98" stroke="#a39f98"></path><path d="M267 402.8L340 427.8L333 374.5Z" fill="#aaa6a0" stroke="#aaa6a0"></path><path d="M340 427.8L388 450L351 368.8Z" fill="#aaa6a0" stroke="#aaa6a0"></path><path d="M414 441.8L388 450L509 450Z" fill="#aaa6a0" stroke="#aaa6a0"></path><path d="M582 450L581 329.8L517 392.8Z" fill="#969087" stroke="#969087"></path><path d="M750 158.8L749 65.5L717 142.5Z" fill="#a39f98" stroke="#a39f98"></path><path d="M509 450L582 450L517 392.8Z" fill="#bebdba" stroke="#bebdba"></path><path d="M127 267L198 282.5L219 259.3Z" fill="#c5c4c3" stroke="#c5c4c3"></path><path d="M179 332.8L232 371.8L238 321.3Z" fill="#b7b5b1" stroke="#b7b5b1"></path><path d="M232 371.8L267 402.8L268 356.5Z" fill="#c5c4c3" stroke="#c5c4c3"></path><path d="M419 -39.7L236 -7.7L287 0Z" fill="#b1ada9" stroke="#b1ada9"></path><path d="M287 0L236 -7.7L276 119.8Z" fill="#b7b5b1" stroke="#b7b5b1"></path><path d="M582 450L600 450L581 329.8Z" fill="#8f897f" stroke="#8f897f"></path><path d="M758 305.8L775 247.5L727 288.3Z" fill="#b1ada9" stroke="#b1ada9"></path><path d="M727 288.3L775 247.5L722 227Z" fill="#c5c4c3" stroke="#c5c4c3"></path><path d="M822 67.5L788 0L749 65.5Z" fill="#9c978f" stroke="#9c978f"></path><path d="M268 356.5L267 402.8L333 374.5Z" fill="#888277" stroke="#888277"></path><path d="M340 427.8L293 450L388 450Z" fill="#b1ada9" stroke="#b1ada9"></path><path d="M232 371.8L268 356.5L238 321.3Z" fill="#cccccc" stroke="#cccccc"></path><path d="M749 388.5L758 305.8L689 297.8Z" fill="#c5c4c3" stroke="#c5c4c3"></path><path d="M216 379.5L232 371.8L179 332.8Z" fill="#a39f98" stroke="#a39f98"></path><path d="M159 138.5L221 177L276 119.8Z" fill="#8f897f" stroke="#8f897f"></path><path d="M190 182.8L127 267L219 259.3Z" fill="#969087" stroke="#969087"></path><path d="M148 99.5L159 138.5L276 119.8Z" fill="#c5c4c3" stroke="#c5c4c3"></path><path d="M236 -7.7L203 0L276 119.8Z" fill="#aaa6a0" stroke="#aaa6a0"></path><path d="M600 450L658 450L680 382.8Z" fill="#b1ada9" stroke="#b1ada9"></path><path d="M680 382.8L749 388.5L689 297.8Z" fill="#9c978f" stroke="#9c978f"></path><path d="M252 450L293 450L267 402.8Z" fill="#cccccc" stroke="#cccccc"></path><path d="M267 402.8L293 450L340 427.8Z" fill="#aaa6a0" stroke="#aaa6a0"></path><path d="M179 332.8L238 321.3L221 295.3Z" fill="#b1ada9" stroke="#b1ada9"></path><path d="M232 371.8L216 379.5L267 402.8Z" fill="#cccccc" stroke="#cccccc"></path><path d="M179 332.8L221 295.3L198 282.5Z" fill="#a39f98" stroke="#a39f98"></path><path d="M885 303.3L799 253.3L758 305.8Z" fill="#8f897f" stroke="#8f897f"></path><path d="M758 305.8L799 253.3L775 247.5Z" fill="#c5c4c3" stroke="#c5c4c3"></path><path d="M775 247.5L804 240L750 158.8Z" fill="#a39f98" stroke="#a39f98"></path><path d="M799 253.3L804 240L775 247.5Z" fill="#b1ada9" stroke="#b1ada9"></path><path d="M127 267L179 332.8L198 282.5Z" fill="#a39f98" stroke="#a39f98"></path><path d="M159 138.5L108 138L158 154.3Z" fill="#cccccc" stroke="#cccccc"></path><path d="M102 169.8L127 267L190 182.8Z" fill="#888277" stroke="#888277"></path><path d="M203 0L148 99.5L276 119.8Z" fill="#a39f98" stroke="#a39f98"></path><path d="M658 450L694 433.8L680 382.8Z" fill="#969087" stroke="#969087"></path><path d="M236 -7.7L185 0L203 0Z" fill="#969087" stroke="#969087"></path><path d="M203 0L185 0L148 99.5Z" fill="#969087" stroke="#969087"></path><path d="M126 0L185 0L236 -7.7Z" fill="#cccccc" stroke="#cccccc"></path><path d="M694 433.8L749 388.5L680 382.8Z" fill="#b7b5b1" stroke="#b7b5b1"></path><path d="M880 68.3L861 93.3L900 95.8Z" fill="#a39f98" stroke="#a39f98"></path><path d="M167 396.5L252 450L216 379.5Z" fill="#aaa6a0" stroke="#aaa6a0"></path><path d="M216 379.5L252 450L267 402.8Z" fill="#a39f98" stroke="#a39f98"></path><path d="M749 65.5L788 0L670 0Z" fill="#9c978f" stroke="#9c978f"></path><path d="M670 0L788 0L512 -39.7Z" fill="#b1ada9" stroke="#b1ada9"></path><path d="M822 67.5L749 65.5L826 76.8Z" fill="#aaa6a0" stroke="#aaa6a0"></path><path d="M658 450L706 450L694 433.8Z" fill="#bebdba" stroke="#bebdba"></path><path d="M694 433.8L706 450L749 388.5Z" fill="#888277" stroke="#888277"></path><path d="M102 169.8L190 182.8L158 154.3Z" fill="#aaa6a0" stroke="#aaa6a0"></path><path d="M179 332.8L167 396.5L216 379.5Z" fill="#aaa6a0" stroke="#aaa6a0"></path><path d="M826 76.8L749 65.5L750 158.8Z" fill="#c5c4c3" stroke="#c5c4c3"></path><path d="M861 93.3L826 76.8L750 158.8Z" fill="#969087" stroke="#969087"></path><path d="M105 91.8L108 138L148 99.5Z" fill="#c5c4c3" stroke="#c5c4c3"></path><path d="M148 99.5L108 138L159 138.5Z" fill="#8f897f" stroke="#8f897f"></path><path d="M108 138L105 158L158 154.3Z" fill="#bebdba" stroke="#bebdba"></path><path d="M85 152.8L102 169.8L105 158Z" fill="#b1ada9" stroke="#b1ada9"></path><path d="M105 158L102 169.8L158 154.3Z" fill="#aaa6a0" stroke="#aaa6a0"></path><path d="M822 67.5L813 0L788 0Z" fill="#969087" stroke="#969087"></path><path d="M788 0L813 0L512 -39.7Z" fill="#a39f98" stroke="#a39f98"></path><path d="M834 0L813 0L822 67.5Z" fill="#cccccc" stroke="#cccccc"></path><path d="M127 267L167 396.5L179 332.8Z" fill="#b7b5b1" stroke="#b7b5b1"></path><path d="M126 0L105 91.8L148 99.5Z" fill="#b7b5b1" stroke="#b7b5b1"></path><path d="M108 138L85 152.8L105 158Z" fill="#b1ada9" stroke="#b1ada9"></path><path d="M50 0L126 0L236 -7.7Z" fill="#888277" stroke="#888277"></path><path d="M185 0L126 0L148 99.5Z" fill="#b1ada9" stroke="#b1ada9"></path><path d="M82 86.5L108 138L105 91.8Z" fill="#aaa6a0" stroke="#aaa6a0"></path><path d="M82 86.5L85 152.8L108 138Z" fill="#b1ada9" stroke="#b1ada9"></path><path d="M102 169.8L72 224.3L127 267Z" fill="#bebdba" stroke="#bebdba"></path><path d="M143 450L152 450L167 396.5Z" fill="#cccccc" stroke="#cccccc"></path><path d="M900 168.5L861 93.3L750 158.8Z" fill="#888277" stroke="#888277"></path><path d="M826 76.8L860 62.5L822 67.5Z" fill="#aaa6a0" stroke="#aaa6a0"></path><path d="M900 174L804 240L900 246.3Z" fill="#b7b5b1" stroke="#b7b5b1"></path><path d="M860 62.5L834 0L822 67.5Z" fill="#b7b5b1" stroke="#b7b5b1"></path><path d="M813 0L834 0L512 -39.7Z" fill="#b1ada9" stroke="#b1ada9"></path><path d="M861 93.3L860 62.5L826 76.8Z" fill="#a39f98" stroke="#a39f98"></path><path d="M771 450L809 397.5L749 388.5Z" fill="#cccccc" stroke="#cccccc"></path><path d="M749 388.5L809 397.5L758 305.8Z" fill="#cccccc" stroke="#cccccc"></path><path d="M706 450L771 450L749 388.5Z" fill="#b7b5b1" stroke="#b7b5b1"></path><path d="M83 35.3L82 86.5L105 91.8Z" fill="#aaa6a0" stroke="#aaa6a0"></path><path d="M17 266.5L72 224.3L0 225.3Z" fill="#aaa6a0" stroke="#aaa6a0"></path><path d="M85 152.8L72 224.3L102 169.8Z" fill="#aaa6a0" stroke="#aaa6a0"></path><path d="M126 0L83 35.3L105 91.8Z" fill="#8f897f" stroke="#8f897f"></path><path d="M0 200.5L72 224.3L85 152.8Z" fill="#9c978f" stroke="#9c978f"></path><path d="M900 168.5L750 158.8L804 240Z" fill="#969087" stroke="#969087"></path><path d="M861 93.3L880 68.3L860 62.5Z" fill="#9c978f" stroke="#9c978f"></path><path d="M860 62.5L900 0L834 0Z" fill="#888277" stroke="#888277"></path><path d="M152 450L155 450L167 396.5Z" fill="#aaa6a0" stroke="#aaa6a0"></path><path d="M167 396.5L155 450L252 450Z" fill="#c5c4c3" stroke="#c5c4c3"></path><path d="M885 303.3L804 240L799 253.3Z" fill="#aaa6a0" stroke="#aaa6a0"></path><path d="M900 174L900 168.5L804 240Z" fill="#a39f98" stroke="#a39f98"></path><path d="M143 450L167 396.5L84 450Z" fill="#9c978f" stroke="#9c978f"></path><path d="M900 168.5L900 139.3L861 93.3Z" fill="#bebdba" stroke="#bebdba"></path><path d="M878 370.8L885 303.3L809 397.5Z" fill="#969087" stroke="#969087"></path><path d="M809 397.5L885 303.3L758 305.8Z" fill="#8f897f" stroke="#8f897f"></path><path d="M885 303.3L900 246.3L804 240Z" fill="#888277" stroke="#888277"></path><path d="M771 450L808 450L809 397.5Z" fill="#969087" stroke="#969087"></path><path d="M900 139.3L900 95.8L861 93.3Z" fill="#9c978f" stroke="#9c978f"></path><path d="M880 68.3L900 0L860 62.5Z" fill="#bebdba" stroke="#bebdba"></path><path d="M84 450L167 396.5L0 366.5Z" fill="#a39f98" stroke="#a39f98"></path><path d="M900 450L878 370.8L809 397.5Z" fill="#cccccc" stroke="#cccccc"></path><path d="M885 303.3L927 287.5L900 246.3Z" fill="#a39f98" stroke="#a39f98"></path><path d="M900 95.8L900 0L880 68.3Z" fill="#888277" stroke="#888277"></path><path d="M834 0L900 0L512 -39.7Z" fill="#bebdba" stroke="#bebdba"></path><path d="M126 0L50 0L83 35.3Z" fill="#bebdba" stroke="#bebdba"></path><path d="M0 81.3L0 113.8L82 86.5Z" fill="#9c978f" stroke="#9c978f"></path><path d="M419 -39.7L50 0L236 -7.7Z" fill="#cccccc" stroke="#cccccc"></path><path d="M900 380.5L900 361.8L878 370.8Z" fill="#b7b5b1" stroke="#b7b5b1"></path><path d="M878 370.8L900 361.8L885 303.3Z" fill="#888277" stroke="#888277"></path><path d="M900 361.8L927 287.5L885 303.3Z" fill="#aaa6a0" stroke="#aaa6a0"></path><path d="M900 246.3L927 287.5L900 174Z" fill="#aaa6a0" stroke="#aaa6a0"></path><path d="M900 174L927 287.5L900 168.5Z" fill="#c5c4c3" stroke="#c5c4c3"></path><path d="M900 168.5L927 287.5L900 139.3Z" fill="#888277" stroke="#888277"></path><path d="M900 139.3L927 287.5L900 95.8Z" fill="#b1ada9" stroke="#b1ada9"></path><path d="M900 95.8L927 287.5L900 0Z" fill="#8f897f" stroke="#8f897f"></path><path d="M0 200.5L85 152.8L0 113.8Z" fill="#b1ada9" stroke="#b1ada9"></path><path d="M72 224.3L17 266.5L127 267Z" fill="#c5c4c3" stroke="#c5c4c3"></path><path d="M900 450L900 380.5L878 370.8Z" fill="#969087" stroke="#969087"></path><path d="M900 361.8L900 380.5L927 287.5Z" fill="#888277" stroke="#888277"></path><path d="M0 113.8L85 152.8L82 86.5Z" fill="#cccccc" stroke="#cccccc"></path><path d="M0 200.5L0 225.3L72 224.3Z" fill="#888277" stroke="#888277"></path><path d="M0 366.5L167 396.5L127 267Z" fill="#cccccc" stroke="#cccccc"></path><path d="M0 308L127 267L17 266.5Z" fill="#9c978f" stroke="#9c978f"></path><path d="M0 81.3L82 86.5L83 35.3Z" fill="#9c978f" stroke="#9c978f"></path><path d="M50 0L0 81.3L83 35.3Z" fill="#bebdba" stroke="#bebdba"></path><path d="M0 225.3L0 308L17 266.5Z" fill="#b1ada9" stroke="#b1ada9"></path><path d="M808 450L900 450L809 397.5Z" fill="#888277" stroke="#888277"></path><path d="M900 380.5L900 450L927 287.5Z" fill="#9c978f" stroke="#9c978f"></path><path d="M419 -39.7L0 0L50 0Z" fill="#888277" stroke="#888277"></path><path d="M50 0L-9 20.3L0 81.3Z" fill="#9c978f" stroke="#9c978f"></path><path d="M457 -43.7L0 0L419 -39.7Z" fill="#b7b5b1" stroke="#b7b5b1"></path><path d="M0 0L-9 20.3L50 0Z" fill="#a39f98" stroke="#a39f98"></path><path d="M0 81.3L-9 20.3L0 113.8Z" fill="#a39f98" stroke="#a39f98"></path><path d="M0 113.8L-9 20.3L0 200.5Z" fill="#9c978f" stroke="#9c978f"></path><path d="M0 200.5L-15 335.8L0 225.3Z" fill="#969087" stroke="#969087"></path><path d="M0 225.3L-15 335.8L0 308Z" fill="#cccccc" stroke="#cccccc"></path><path d="M-15 335.8L0 366.5L0 308Z" fill="#bebdba" stroke="#bebdba"></path><path d="M0 308L0 366.5L127 267Z" fill="#aaa6a0" stroke="#aaa6a0"></path><path d="M-9 20.3L-15 335.8L0 200.5Z" fill="#bebdba" stroke="#bebdba"></path><path d="M0 366.5L0 450L84 450Z" fill="#969087" stroke="#969087"></path><path d="M-15 335.8L0 450L0 366.5Z" fill="#969087" stroke="#969087"></path><path d="M-15 335.8L0 467.8L0 450Z" fill="#cccccc" stroke="#cccccc"></path><path d="M0 450L0 467.8L84 450Z" fill="#c5c4c3" stroke="#c5c4c3"></path><path d="M84 450L0 467.8L143 450Z" fill="#cccccc" stroke="#cccccc"></path><path d="M143 450L0 467.8L152 450Z" fill="#bebdba" stroke="#bebdba"></path><path d="M152 450L0 467.8L155 450Z" fill="#bebdba" stroke="#bebdba"></path><path d="M155 450L0 467.8L252 450Z" fill="#8f897f" stroke="#8f897f"></path><path d="M252 450L0 467.8L293 450Z" fill="#b1ada9" stroke="#b1ada9"></path><path d="M293 450L0 467.8L388 450Z" fill="#a39f98" stroke="#a39f98"></path><path d="M388 450L0 467.8L509 450Z" fill="#cccccc" stroke="#cccccc"></path><path d="M509 450L0 467.8L582 450Z" fill="#aaa6a0" stroke="#aaa6a0"></path><path d="M582 450L0 467.8L600 450Z" fill="#b1ada9" stroke="#b1ada9"></path><path d="M600 450L0 467.8L658 450Z" fill="#8f897f" stroke="#8f897f"></path><path d="M658 450L0 467.8L706 450Z" fill="#b7b5b1" stroke="#b7b5b1"></path><path d="M706 450L0 467.8L771 450Z" fill="#bebdba" stroke="#bebdba"></path><path d="M771 450L0 467.8L808 450Z" fill="#b1ada9" stroke="#b1ada9"></path><path d="M808 450L0 467.8L900 450Z" fill="#aaa6a0" stroke="#aaa6a0"></path></g></svg>